<svg width="100" height="75" viewBox="0 0 68 58" fill="none" xmlns="http://www.w3.org/2000/svg">
<g filter="url(#filter0_d)">
<path d="M61.7693 31.4341C59.0486 43.2538 44.6119 50.5507 28.9537 46.9228C13.2955 43.2948 3.50993 30.3856 6.23066 18.5659C8.95138 6.74625 23.3881 -0.550689 39.0463 3.07729C54.7045 6.70527 64.4901 19.6145 61.7693 31.4341Z" fill="#634832" stroke="#ECE0D1" stroke-width="3"/>
<path d="M6.625 15.2375C26.3465 4.27343 48.6112 40.3592 61.2549 35.4262" stroke="#ECE0D1" stroke-width="2" stroke-linecap="round"/>
<path d="M33.1717 39.6039C42.7287 44.2379 53.5152 41.6799 57.2639 33.8905C61.0127 26.1011 56.3042 16.03 46.7471 11.396C37.1901 6.76202 26.4036 9.31998 22.6549 17.1094C18.9061 24.8988 23.6147 34.9699 33.1717 39.6039Z" fill="#ECE0D1"/>
<path d="M41.3554 31.3498C41.8648 31.3498 42.2816 30.9317 42.2816 30.4206C42.2816 29.9095 41.3554 29.0267 41.3554 29.0267C41.3554 29.0267 40.4292 29.9095 40.4292 30.4206C40.4292 30.9317 40.846 31.3498 41.3554 31.3498Z" fill="#634832"/>
<path d="M45.827 33.5632L44.2089 33.8046C44.0986 33.8156 43.9883 33.8156 43.8902 33.8046L41.083 33.3876L38.3003 32.9705C38.19 32.9595 38.0797 32.9595 37.9816 32.9705L36.0202 33.2668C35.5422 33.3327 35.1989 33.7058 35.1989 34.1339V34.7046C35.1989 35.6704 36.0815 36.4606 37.1603 36.4606H45.0057C46.0845 36.4606 46.9671 35.6704 46.9671 34.7046V34.4302C46.9671 33.8814 46.4277 33.4644 45.827 33.5632Z" fill="#634832"/>
<path d="M49.4902 24.9661C49.4902 24.8267 49.386 24.699 49.2471 24.6757C49.0271 23.8627 48.4714 23.2819 48.043 22.9218C48.0778 22.8289 48.1009 22.736 48.1009 22.6314C48.1009 22.2481 47.7883 21.9345 47.4063 21.9345C47.1631 21.9345 46.9432 22.0623 46.8274 22.2481L47.3947 19.0887C47.4873 18.566 47.1747 18.0898 46.7348 17.9969L47.1863 16.2894C47.2905 15.7202 46.8505 15.1976 46.2717 15.1976H46.1096L46.7348 13.0022C46.8158 12.7002 46.5958 12.4099 46.2948 12.4099L35.8172 13.4552C35.5162 13.4552 35.2962 13.7456 35.3657 14.036L35.6783 15.1976H35.5278C34.9489 15.1976 34.509 15.7202 34.6132 16.2894L35.0647 18.0201C34.6595 18.1479 34.3816 18.6125 34.4742 19.1003L35.0647 22.3991H35.0184C34.891 22.3991 34.7868 22.5037 34.7868 22.6314C34.7868 22.7592 34.891 22.8637 35.0184 22.8637H35.0531L34.4627 26.1625C34.3816 26.6271 34.6247 27.0685 34.9952 27.2195L33.166 33.7938C32.564 36.1518 33.8606 38.44 36.2919 38.44H45.5191C47.9272 38.44 49.2355 36.1634 48.6451 33.8171L46.8042 27.2427C47.2094 27.115 47.4757 26.6504 47.3831 26.1741L46.8158 23.0147C46.9432 23.2006 47.1516 23.3283 47.3947 23.3283C47.5568 23.3283 47.6957 23.2703 47.8115 23.189C47.9736 23.4213 48.1472 23.7581 48.2283 24.246C48.1472 24.2924 48.0778 24.3854 48.0778 24.5015C48.0778 24.6293 48.1588 24.7338 48.2746 24.7803C48.2746 24.8384 48.2746 24.908 48.2746 24.9661C48.2746 25.0358 48.3209 25.0823 48.3903 25.0823C48.4598 25.0823 48.5061 25.0358 48.5061 24.9661C48.5061 24.8964 48.5061 24.8267 48.5061 24.757C48.5987 24.7106 48.6566 24.6177 48.6566 24.5015C48.6566 24.3737 48.5756 24.2692 48.4598 24.2227C48.4019 23.9091 48.3209 23.642 48.2167 23.4213C48.5293 23.7465 48.8534 24.1879 49.004 24.7338C48.9345 24.7919 48.8998 24.8732 48.8998 24.9545C48.8998 25.0823 48.9808 25.1868 49.0966 25.2333C49.0966 25.2914 49.1082 25.361 49.1082 25.4191C49.1082 25.4888 49.1545 25.5353 49.2239 25.5353C49.2934 25.5353 49.3397 25.4888 49.3397 25.4191C49.3397 25.3494 49.3397 25.2797 49.3281 25.21C49.4323 25.1752 49.4902 25.0707 49.4902 24.9661ZM46.2601 16.1384L45.7738 17.9969H45.2992L45.8317 16.1384H46.2601ZM36.9055 17.9969L36.3961 16.1384H45.3455L44.8129 17.9969H36.9055ZM35.7941 13.9315C35.8056 13.9315 35.8288 13.9315 35.8404 13.9315L46.2717 12.8861L45.6118 15.2092H36.1414L35.7941 13.9315ZM35.9098 16.1384L36.4193 17.9969H35.9909L35.5046 16.1384H35.9098ZM35.9677 22.2946L35.3657 18.9493C35.3657 18.9377 35.3657 18.9377 35.3657 18.9261H37.0329H44.6856H46.4801C46.4801 18.9261 46.4801 18.9377 46.4801 18.9493L45.878 22.3062C45.8665 22.341 45.8665 22.3875 45.8665 22.4223H35.9793C35.9793 22.3759 35.9793 22.3294 35.9677 22.2946ZM45.8665 22.8753C45.8665 22.9102 45.878 22.9567 45.878 22.9915L46.4801 26.3484C46.4801 26.36 46.4801 26.36 46.4801 26.3716H35.3657C35.3657 26.3716 35.3657 26.36 35.3657 26.3484L35.9677 22.9915C35.9793 22.9567 35.9793 22.9102 35.9793 22.8753H45.8665ZM35.0647 27.2544C35.0531 27.2544 35.0415 27.2427 35.0184 27.2427C35.0415 27.2544 35.0531 27.2544 35.0647 27.2544ZM35.1573 27.2776C35.1457 27.2776 35.1226 27.266 35.111 27.266C35.1226 27.2776 35.1342 27.2776 35.1573 27.2776ZM47.3136 36.6745C46.8853 37.2204 46.2717 37.5108 45.5191 37.5108H36.2919C35.5394 37.5108 34.9142 37.2204 34.4974 36.6629C33.9764 35.9892 33.8143 35.0018 34.069 34.0262L35.933 27.2892H45.8549L47.7536 34.061C47.9967 35.0367 47.8231 36.0124 47.3136 36.6745Z" fill="#634832"/>
</g>
<defs>
<filter id="filter0_d" x="0" y="0.648193" width="68" height="56.7037" filterUnits="userSpaceOnUse" color-interpolation-filters="sRGB">
<feFlood flood-opacity="0" result="BackgroundImageFix"/>
<feColorMatrix in="SourceAlpha" type="matrix" values="0 0 0 0 0 0 0 0 0 0 0 0 0 0 0 0 0 0 127 0" result="hardAlpha"/>
<feOffset dy="4"/>
<feGaussianBlur stdDeviation="2"/>
<feComposite in2="hardAlpha" operator="out"/>
<feColorMatrix type="matrix" values="0 0 0 0 0 0 0 0 0 0 0 0 0 0 0 0 0 0 0.25 0"/>
<feBlend mode="normal" in2="BackgroundImageFix" result="effect1_dropShadow"/>
<feBlend mode="normal" in="SourceGraphic" in2="effect1_dropShadow" result="shape"/>
</filter>
</defs>
</svg>
