<svg width="177" height="144" viewBox="0 0 177 144" fill="none" xmlns="http://www.w3.org/2000/svg">
<g filter="url(#filter0_d)">
<path d="M168.396 86.3475C160.45 120.561 118.586 141.107 73.904 130.847C29.2223 120.586 0.657539 83.8662 8.6036 49.6525C16.5497 15.4387 58.4143 -5.10736 103.096 5.15342C147.778 15.4142 176.342 52.1338 168.396 86.3475Z" fill="#634832" stroke="#ECE0D1" stroke-width="5"/>
<path d="M11.3937 40.7465C66.9427 10.1383 129.655 110.878 165.268 97.1065" stroke="#ECE0D1" stroke-width="4" stroke-linecap="round"/>
<path d="M86.167 108.769C113.086 121.706 143.468 114.565 154.027 92.8194C164.586 71.074 151.323 42.9587 124.405 30.0222C97.4855 17.0856 67.1036 24.2266 56.5446 45.972C45.9856 67.7173 59.248 95.8326 86.167 108.769Z" fill="#ECE0D1"/>
<path d="M109.218 85.7265C110.652 85.7265 111.826 84.5592 111.826 83.1324C111.826 81.7057 109.218 79.2413 109.218 79.2413C109.218 79.2413 106.609 81.7057 106.609 83.1324C106.609 84.5592 107.783 85.7265 109.218 85.7265Z" fill="#634832"/>
<path d="M121.813 91.9055L117.255 92.5796C116.944 92.6102 116.633 92.6102 116.357 92.5796L108.45 91.4153L100.612 90.251C100.302 90.2204 99.9909 90.2204 99.7147 90.251L94.1902 91.0783C92.8436 91.2621 91.8768 92.3038 91.8768 93.4987V95.0919C91.8768 97.7881 94.3629 99.9941 97.4013 99.9941H119.499C122.538 99.9941 125.024 97.7881 125.024 95.0919V94.326C125.024 92.794 123.505 91.6298 121.813 91.9055Z" fill="#634832"/>
<path d="M132.131 67.9054C132.131 67.5163 131.837 67.1596 131.446 67.0947C130.826 64.8249 129.261 63.2035 128.054 62.1983C128.152 61.9389 128.218 61.6795 128.218 61.3877C128.218 60.3176 127.337 59.4421 126.261 59.4421C125.576 59.4421 124.957 59.7988 124.63 60.3176L126.228 51.4976C126.489 50.0384 125.609 48.709 124.37 48.4495L125.641 43.6829C125.935 42.094 124.696 40.6348 123.065 40.6348H122.609L124.37 34.5062C124.598 33.6631 123.978 32.8524 123.13 32.8524L93.6184 35.7708C92.7706 35.7708 92.151 36.5815 92.3467 37.3921L93.2271 40.6348H92.8032C91.1727 40.6348 89.9335 42.094 90.227 43.6829L91.4988 48.5144C90.3575 48.8711 89.5748 50.1681 89.8357 51.53L91.4988 60.7391H91.3684C91.0097 60.7391 90.7162 61.031 90.7162 61.3877C90.7162 61.7444 91.0097 62.0362 91.3684 62.0362H91.4662L89.8031 71.2453C89.5748 72.5423 90.2596 73.7745 91.3031 74.1961L86.1508 92.5494C84.4551 99.132 88.1074 105.52 94.9555 105.52H120.946C127.728 105.52 131.413 99.1644 129.75 92.6143L124.565 74.2609C125.707 73.9043 126.457 72.6072 126.196 71.2777L124.598 62.4577C124.957 62.9766 125.543 63.3333 126.228 63.3333C126.685 63.3333 127.076 63.1711 127.402 62.9441C127.859 63.5927 128.348 64.533 128.576 65.8949C128.348 66.0246 128.152 66.2841 128.152 66.6083C128.152 66.965 128.381 67.2568 128.707 67.3865C128.707 67.5487 128.707 67.7432 128.707 67.9054C128.707 68.0999 128.837 68.2296 129.033 68.2296C129.228 68.2296 129.359 68.0999 129.359 67.9054C129.359 67.7108 129.359 67.5163 129.359 67.3217C129.62 67.192 129.783 66.9326 129.783 66.6083C129.783 66.2516 129.555 65.9598 129.228 65.8301C129.065 64.9546 128.837 64.2088 128.544 63.5927C129.424 64.5006 130.337 65.7328 130.761 67.2568C130.565 67.419 130.468 67.646 130.468 67.8729C130.468 68.2296 130.696 68.5215 131.022 68.6512C131.022 68.8133 131.055 69.0079 131.055 69.17C131.055 69.3646 131.185 69.4943 131.381 69.4943C131.576 69.4943 131.707 69.3646 131.707 69.17C131.707 68.9754 131.707 68.7809 131.674 68.5863C131.968 68.489 132.131 68.1972 132.131 67.9054ZM123.033 43.2613L121.663 48.4495H120.326L121.826 43.2613H123.033ZM96.6838 48.4495L95.2489 43.2613H120.456L118.956 48.4495H96.6838ZM93.5532 37.1003C93.5858 37.1003 93.6511 37.1003 93.6837 37.1003L123.065 34.1819L121.206 40.6672H94.5315L93.5532 37.1003ZM93.8793 43.2613L95.3142 48.4495H94.1076L92.738 43.2613H93.8793ZM94.0424 60.4473L92.3467 51.1085C92.3467 51.0761 92.3467 51.0761 92.3467 51.0436H97.0425H118.598H123.652C123.652 51.0436 123.652 51.0761 123.652 51.1085L121.956 60.4797C121.924 60.577 121.924 60.7067 121.924 60.804H94.075C94.075 60.6743 94.075 60.5446 94.0424 60.4473ZM121.924 62.0686C121.924 62.1659 121.956 62.2956 121.956 62.3929L123.652 71.7641C123.652 71.7965 123.652 71.7965 123.652 71.829H92.3467C92.3467 71.829 92.3467 71.7965 92.3467 71.7641L94.0424 62.3929C94.075 62.2956 94.075 62.1659 94.075 62.0686H121.924ZM91.4988 74.2934C91.4662 74.2934 91.4336 74.2609 91.3684 74.2609C91.4336 74.2934 91.4662 74.2934 91.4988 74.2934ZM91.7597 74.3582C91.7271 74.3582 91.6619 74.3258 91.6292 74.3258C91.6619 74.3582 91.6945 74.3582 91.7597 74.3582ZM126 100.591C124.793 102.115 123.065 102.926 120.946 102.926H94.9555C92.8358 102.926 91.0749 102.115 89.9009 100.559C88.4335 98.678 87.9769 95.9218 88.6944 93.198L93.9445 74.3907H121.891L127.239 93.2952C127.924 96.0191 127.435 98.7429 126 100.591Z" fill="#634832"/>
</g>
<defs>
<filter id="filter0_d" x="0" y="0.0177917" width="177" height="143.964" filterUnits="userSpaceOnUse" color-interpolation-filters="sRGB">
<feFlood flood-opacity="0" result="BackgroundImageFix"/>
<feColorMatrix in="SourceAlpha" type="matrix" values="0 0 0 0 0 0 0 0 0 0 0 0 0 0 0 0 0 0 127 0" result="hardAlpha"/>
<feOffset dy="4"/>
<feGaussianBlur stdDeviation="2"/>
<feComposite in2="hardAlpha" operator="out"/>
<feColorMatrix type="matrix" values="0 0 0 0 0 0 0 0 0 0 0 0 0 0 0 0 0 0 0.25 0"/>
<feBlend mode="normal" in2="BackgroundImageFix" result="effect1_dropShadow"/>
<feBlend mode="normal" in="SourceGraphic" in2="effect1_dropShadow" result="shape"/>
</filter>
</defs>
</svg>
