<svg width="100" height="90" viewBox="0 0 621 648" fill="none" xmlns="http://www.w3.org/2000/svg">
<g filter="url(#filter0_d)">
<rect x="150.697" y="98.7931" width="322.906" height="435.31" rx="42.5" transform="rotate(2.63846 150.697 98.7931)" fill="#D1BAA7"/>
<rect x="150.697" y="98.7931" width="322.906" height="435.31" rx="42.5" transform="rotate(2.63846 150.697 98.7931)" fill="black" fill-opacity="0.2"/>
<rect x="150.697" y="98.7931" width="322.906" height="435.31" rx="42.5" transform="rotate(2.63846 150.697 98.7931)" stroke="#AB7E58" stroke-width="9"/>
<path d="M441.498 343.698C432.736 403.645 365.357 444.194 290.405 433.549C215.452 422.904 162.426 365.254 171.188 305.307C179.95 245.36 247.329 204.811 322.282 215.456C397.235 226.101 450.26 283.751 441.498 343.698Z" fill="#ECE0D1" stroke="#7B7A79" stroke-width="3"/>
<path d="M354.921 304.116C354.681 303.357 353.842 302.857 352.977 302.992C350.268 298.977 345.966 296.859 342.802 295.704C342.847 295.132 342.824 294.583 342.644 294.013C341.982 291.926 339.585 290.806 337.317 291.524C335.874 291.982 334.789 293.092 334.422 294.322L332.336 276.046C331.984 273.025 329.306 271.019 326.534 271.341L326.267 261.191C325.903 257.895 322.389 255.876 318.953 256.965L317.991 257.27L317.913 244.137C317.872 242.34 316.065 241.172 314.278 241.738L253.883 267.144C252.096 267.711 251.291 269.706 252.205 271.157L256.066 276.895L255.172 277.179C251.736 278.268 250.026 281.942 251.627 284.846L257.295 293.423C255.11 294.881 254.263 297.935 255.655 300.418L264.854 317.274L264.579 317.361C263.823 317.601 263.385 318.366 263.605 319.062C263.826 319.758 264.625 320.131 265.381 319.892L265.587 319.826L267.776 338.904C268.097 341.588 270.302 343.534 272.762 343.66L273.251 382.909C273.747 396.884 285.395 406.908 299.828 402.334L354.605 384.974C368.901 380.444 372.737 365.582 365.182 353.914L342.906 321.569C345.091 320.111 345.87 317.079 344.498 314.66L335.677 298.519C336.753 299.291 338.211 299.595 339.654 299.138C340.617 298.833 341.341 298.255 341.888 297.595C343.251 298.555 344.864 300.063 346.187 302.568C345.786 302.973 345.534 303.61 345.734 304.243C345.955 304.938 346.617 305.355 347.384 305.391C347.484 305.707 347.605 306.087 347.705 306.403C347.825 306.782 348.18 306.948 348.593 306.818C349.005 306.687 349.2 306.347 349.079 305.967C348.959 305.588 348.839 305.208 348.719 304.828C349.188 304.401 349.371 303.786 349.171 303.153C348.95 302.458 348.289 302.041 347.521 302.005C346.636 300.406 345.694 299.104 344.695 298.098C347.112 299.281 349.798 301.075 351.634 303.765C351.322 304.212 351.256 304.721 351.396 305.163C351.617 305.859 352.278 306.276 353.046 306.311C353.146 306.628 353.335 306.986 353.435 307.302C353.556 307.682 353.911 307.847 354.323 307.717C354.735 307.586 354.93 307.246 354.81 306.866C354.69 306.487 354.569 306.107 354.38 305.749C354.939 305.363 355.102 304.685 354.921 304.116ZM320.508 262.112L320.83 273.149L318.012 274.042L317.965 262.917L320.508 262.112ZM268.183 289.833L261.951 280.669L315.079 263.832L315.125 274.957L268.183 289.833ZM254.568 269.782C254.636 269.76 254.774 269.716 254.843 269.695L314.963 244.376L315.055 258.27L258.835 276.087L254.568 269.782ZM259.064 281.584L265.296 290.748L262.753 291.554L256.659 282.347L259.064 281.584ZM270.034 315.006L260.686 297.918C260.666 297.855 260.666 297.855 260.646 297.792L270.543 294.655L315.973 280.257L326.626 276.881C326.626 276.881 326.646 276.945 326.666 277.008L328.887 296.424C328.878 296.636 328.958 296.889 329.018 297.078L270.324 315.68C270.243 315.427 270.163 315.174 270.034 315.006ZM329.8 299.546C329.86 299.736 330.009 299.967 330.069 300.157L339.438 317.308C339.458 317.371 339.458 317.371 339.478 317.434L273.498 338.344C273.498 338.344 273.478 338.281 273.458 338.218L271.237 318.802C271.246 318.59 271.166 318.337 271.106 318.147L329.8 299.546ZM273.235 343.719C273.166 343.741 273.077 343.699 272.94 343.743C273.097 343.762 273.166 343.741 273.235 343.719ZM273.825 343.671C273.756 343.693 273.598 343.673 273.53 343.695C273.619 343.736 273.687 343.715 273.825 343.671ZM362.211 371.982C360.61 375.761 357.469 378.497 353.001 379.913L298.224 397.273C293.757 398.689 289.544 398.283 286.107 396.031C281.852 393.341 279.185 388.269 279.013 382.475L278.45 342.275L337.35 323.608L360.311 356.919C363.439 361.776 364.092 367.417 362.211 371.982Z" fill="#8D7561"/>
<path d="M349.772 358.077L340.022 362.714C339.347 362.998 338.652 363.218 338.014 363.35L319.557 366.527L301.255 369.655C300.539 369.812 299.844 370.032 299.247 370.292L287.436 375.934C284.545 377.272 283.071 380.13 283.861 382.622L284.914 385.945C286.696 391.569 293.715 394.408 300.512 392.254L349.944 376.588C356.741 374.434 360.844 368.07 359.061 362.447L358.555 360.849C357.542 357.654 353.374 356.302 349.772 358.077Z" fill="#8D7561"/>
<path d="M316.379 352.256C319.068 351.404 320.524 348.36 319.615 345.492C318.706 342.624 312.248 339.219 312.248 339.219C312.248 339.219 308.929 345.723 309.838 348.591C310.747 351.459 313.69 353.108 316.379 352.256Z" fill="#8D7561"/>
</g>
<g filter="url(#filter1_d)">
<rect x="235.915" y="74.5119" width="325.906" height="438.31" rx="44" transform="rotate(11.9934 235.915 74.5119)" fill="#D69E6E"/>
<rect x="235.915" y="74.5119" width="325.906" height="438.31" rx="44" transform="rotate(11.9934 235.915 74.5119)" fill="black" fill-opacity="0.2"/>
<rect x="235.915" y="74.5119" width="325.906" height="438.31" rx="44" transform="rotate(11.9934 235.915 74.5119)" stroke="#4F3A28" stroke-width="6"/>
<path d="M484.195 365.208C465.805 422.934 392.731 451.991 320.506 429.304C248.28 406.617 205.331 341.115 223.721 283.389C242.111 225.664 315.184 196.606 387.41 219.293C459.636 241.98 502.585 307.483 484.195 365.208Z" fill="#ECE0D1" stroke="#DBC1AC" stroke-width="3"/>
<path d="M405.204 312.079C405.09 311.291 404.343 310.661 403.468 310.654C401.447 306.252 397.547 303.463 394.613 301.809C394.751 301.253 394.817 300.707 394.732 300.116C394.418 297.948 392.235 296.453 389.881 296.794C388.382 297.01 387.131 297.929 386.569 299.083L387.482 280.712C387.625 277.674 385.309 275.259 382.522 275.126L383.908 265.068C384.085 261.757 380.946 259.193 377.378 259.709L376.379 259.854L378.437 246.882C378.689 245.102 377.096 243.656 375.241 243.925L311.519 259.176C309.664 259.444 308.546 261.282 309.211 262.862L312.088 269.152L311.16 269.286C307.592 269.802 305.308 273.15 306.416 276.276L310.614 285.66C308.221 286.744 306.889 289.619 307.859 292.295L314.196 310.422L313.91 310.463C313.125 310.577 312.569 311.261 312.673 311.983C312.778 312.706 313.505 313.204 314.29 313.091L314.504 313.06L313.563 332.24C313.443 334.939 315.303 337.219 317.71 337.742L311.812 376.549C310.03 390.419 319.893 402.203 334.878 400.036L391.748 391.811C406.59 389.664 412.792 375.624 407.234 362.883L390.511 327.347C392.904 326.264 394.166 323.399 393.205 320.789L387.125 303.429C388.062 304.366 389.451 304.903 390.949 304.686C391.948 304.542 392.757 304.089 393.404 303.526C394.593 304.695 395.939 306.445 396.837 309.132C396.376 309.467 396.024 310.054 396.119 310.711C396.223 311.434 396.808 311.952 397.56 312.112C397.607 312.44 397.664 312.834 397.712 313.163C397.769 313.557 398.092 313.778 398.52 313.717C398.948 313.655 399.196 313.351 399.139 312.957C399.082 312.562 399.025 312.168 398.968 311.774C399.501 311.429 399.781 310.852 399.686 310.195C399.582 309.473 398.997 308.954 398.245 308.794C397.632 307.072 396.914 305.634 396.091 304.479C398.284 306.039 400.643 308.246 402.017 311.199C401.636 311.589 401.489 312.08 401.555 312.54C401.66 313.262 402.245 313.781 402.996 313.941C403.044 314.269 403.172 314.653 403.22 314.981C403.277 315.376 403.6 315.597 404.028 315.535C404.456 315.473 404.704 315.169 404.647 314.775C404.59 314.381 404.533 313.987 404.405 313.603C405.018 313.313 405.29 312.67 405.204 312.079ZM378.076 265.04L376.599 275.983L373.674 276.406L375.436 265.422L378.076 265.04ZM321.941 283.888L317.281 273.832L372.439 265.855L370.677 276.839L321.941 283.888ZM311.766 261.889C311.837 261.879 311.98 261.858 312.051 261.848L375.488 246.638L373.32 260.363L314.951 268.805L311.766 261.889ZM314.284 274.266L318.944 284.321L316.304 284.703L311.787 274.627L314.284 274.266ZM319.676 309.026L313.229 290.646C313.22 290.58 313.22 290.58 313.21 290.515L323.486 289.029L370.652 282.207L381.712 280.608C381.712 280.608 381.721 280.673 381.731 280.739L380.766 300.258C380.723 300.465 380.761 300.728 380.789 300.925L319.852 309.738C319.814 309.475 319.776 309.213 319.676 309.026ZM381.16 303.487C381.188 303.684 381.298 303.936 381.326 304.133L387.782 322.579C387.792 322.644 387.792 322.644 387.801 322.71L319.3 332.617C319.3 332.617 319.29 332.552 319.281 332.486L320.246 312.967C320.289 312.76 320.251 312.497 320.222 312.3L381.16 303.487ZM318.166 337.877C318.095 337.888 318.014 337.832 317.871 337.853C318.024 337.898 318.095 337.888 318.166 337.877ZM318.756 337.926C318.685 337.937 318.533 337.892 318.461 337.902C318.542 337.957 318.614 337.947 318.756 337.926ZM401.365 380.227C399.171 383.696 395.627 385.885 390.988 386.556L334.118 394.781C329.48 395.452 325.389 394.367 322.365 391.586C318.603 388.241 316.796 382.802 317.568 377.058L323.547 337.3L384.698 328.456L401.939 365.057C404.235 370.357 403.963 376.029 401.365 380.227Z" fill="#D69E6E"/>
<path d="M391.352 364.486L380.978 367.476C380.266 367.647 379.544 367.751 378.893 367.778L360.165 367.912L341.598 368.024C340.867 368.062 340.145 368.166 339.513 368.325L326.942 371.972C323.872 372.823 321.953 375.403 322.327 377.991L322.826 381.441C323.671 387.28 330.135 391.222 337.192 390.201L388.513 382.779C395.569 381.758 400.652 376.146 399.807 370.307L399.567 368.649C399.088 365.331 395.195 363.32 391.352 364.486Z" fill="#D69E6E"/>
<path d="M359.349 353.315C362.141 352.911 364.073 350.144 363.642 347.166C363.211 344.189 357.392 339.779 357.392 339.779C357.392 339.779 353.06 345.657 353.491 348.635C353.921 351.612 356.558 353.718 359.349 353.315Z" fill="#D69E6E"/>
</g>
<g filter="url(#filter2_dd)">
<rect x="309.29" y="82.7202" width="325.906" height="438.31" rx="44" transform="rotate(21.2541 309.29 82.7202)" fill="#634832"/>
<rect x="309.29" y="82.7202" width="325.906" height="438.31" rx="44" transform="rotate(21.2541 309.29 82.7202)" fill="black" fill-opacity="0.2"/>
<rect x="309.29" y="82.7202" width="325.906" height="438.31" rx="44" transform="rotate(21.2541 309.29 82.7202)" stroke="#F8D0AD" stroke-width="6"/>
<path d="M507.553 409.583C480.113 463.596 403.315 480.516 335.682 446.501C268.049 412.487 236.2 340.926 263.64 286.913C291.08 232.899 367.878 215.98 435.511 249.994C503.144 284.009 534.993 355.569 507.553 409.583Z" fill="#ECE0D1" stroke="#F8D0AD" stroke-width="3"/>
<path d="M438.141 344.434C438.155 343.638 437.52 342.897 436.657 342.748C435.371 338.079 431.971 334.699 429.34 332.594C429.566 332.067 429.72 331.538 429.731 330.941C429.77 328.752 427.856 326.925 425.477 326.882C423.963 326.855 422.581 327.56 421.841 328.609L425.698 310.624C426.328 307.648 424.431 304.893 421.701 304.312L424.688 294.609C425.395 291.369 422.71 288.334 419.106 288.269L418.096 288.251L422.215 275.78C422.75 274.064 421.411 272.38 419.536 272.346L354.191 277.144C352.317 277.11 350.917 278.744 351.32 280.411L353.147 287.082L352.209 287.065C348.605 287 345.812 289.937 346.402 293.2L349.036 303.137C346.5 303.822 344.722 306.445 345.248 309.242L348.585 328.153L348.297 328.148C347.504 328.134 346.845 328.719 346.831 329.449C346.818 330.179 347.456 330.788 348.249 330.802L348.466 330.806L344.45 349.585C343.898 352.23 345.366 354.779 347.657 355.683L335.592 393.035C331.601 406.437 339.439 419.655 354.577 419.927L412.03 420.961C427.024 421.231 435.404 408.372 431.969 394.902L421.183 357.139C423.719 356.454 425.425 353.83 424.897 351.099L421.69 332.987C422.464 334.063 423.748 334.816 425.262 334.843C426.271 334.862 427.142 334.545 427.871 334.094C428.857 335.439 429.903 337.383 430.358 340.179C429.848 340.435 429.406 340.958 429.394 341.622C429.381 342.352 429.875 342.958 430.591 343.236C430.585 343.568 430.578 343.966 430.572 344.298C430.565 344.696 430.848 344.967 431.281 344.975C431.713 344.982 432.006 344.722 432.014 344.324C432.021 343.926 432.028 343.528 432.035 343.13C432.617 342.875 432.987 342.35 432.999 341.687C433.012 340.957 432.518 340.351 431.802 340.072C431.474 338.274 430.996 336.739 430.37 335.466C432.283 337.359 434.256 339.917 435.137 343.053C434.699 343.377 434.474 343.837 434.466 344.302C434.453 345.032 434.946 345.638 435.663 345.916C435.657 346.248 435.722 346.648 435.716 346.979C435.708 347.378 435.992 347.648 436.424 347.656C436.857 347.664 437.15 347.403 437.157 347.005C437.164 346.607 437.172 346.209 437.107 345.81C437.759 345.622 438.13 345.032 438.141 344.434ZM418.937 293.642L415.718 304.205L412.762 304.152L416.269 293.594L418.937 293.642ZM360.5 303.211L357.519 292.537L413.242 293.54L409.735 304.097L360.5 303.211ZM353.998 279.862C354.07 279.863 354.214 279.866 354.286 279.867L419.343 275.064L414.995 288.261L356.029 287.2L353.998 279.862ZM354.492 292.482L357.472 303.156L354.805 303.108L351.969 292.437L354.492 292.482ZM354.219 327.657L350.814 308.479C350.816 308.413 350.816 308.413 350.817 308.347L361.197 308.533L408.846 309.391L420.02 309.592C420.02 309.592 420.018 309.659 420.017 309.725L415.924 328.834C415.848 329.032 415.843 329.297 415.84 329.496L354.278 328.388C354.283 328.123 354.287 327.857 354.219 327.657ZM415.793 332.084C415.789 332.283 415.857 332.55 415.853 332.749L419.256 351.993C419.255 352.06 419.255 352.06 419.254 352.126L350.051 350.88C350.051 350.88 350.052 350.814 350.054 350.748L354.147 331.638C354.223 331.441 354.228 331.175 354.231 330.976L415.793 332.084ZM348.086 355.89C348.014 355.888 347.943 355.821 347.799 355.818C347.942 355.887 348.014 355.888 348.086 355.89ZM348.66 356.033C348.588 356.031 348.445 355.962 348.373 355.961C348.444 356.029 348.516 356.03 348.66 356.033ZM423.385 411.076C420.661 414.147 416.811 415.737 412.125 415.653L354.673 414.619C349.987 414.534 346.124 412.805 343.586 409.574C340.412 405.667 339.504 400.008 341.19 394.463L353.489 356.186L415.267 357.298L426.393 396.196C427.806 401.797 426.625 407.351 423.385 411.076Z" fill="#634832"/>
<path d="M416.036 393.928L405.316 395.211C404.585 395.265 403.856 395.251 403.21 395.173L384.704 392.292L366.361 389.414C365.633 389.333 364.904 389.32 364.255 389.376L351.26 390.952C348.094 391.297 345.784 393.536 345.737 396.15L345.675 399.635C345.568 405.534 351.314 410.465 358.443 410.593L410.289 411.526C417.418 411.655 423.338 406.933 423.444 401.035L423.474 399.359C423.535 396.008 420.016 393.397 416.036 393.928Z" fill="#634832"/>
<path d="M386.248 377.753C389.068 377.804 391.42 375.384 391.474 372.376C391.528 369.368 386.494 364.079 386.494 364.079C386.494 364.079 381.273 369.183 381.219 372.191C381.165 375.199 383.428 377.702 386.248 377.753Z" fill="#634832"/>
</g>
<defs>
<filter id="filter0_d" x="121.956" y="94.0908" width="360.007" height="467.118" filterUnits="userSpaceOnUse" color-interpolation-filters="sRGB">
<feFlood flood-opacity="0" result="BackgroundImageFix"/>
<feColorMatrix in="SourceAlpha" type="matrix" values="0 0 0 0 0 0 0 0 0 0 0 0 0 0 0 0 0 0 127 0" result="hardAlpha"/>
<feOffset dy="4"/>
<feGaussianBlur stdDeviation="2"/>
<feComposite in2="hardAlpha" operator="out"/>
<feColorMatrix type="matrix" values="0 0 0 0 0 0 0 0 0 0 0 0 0 0 0 0 0 0 0.25 0"/>
<feBlend mode="normal" in2="BackgroundImageFix" result="effect1_dropShadow"/>
<feBlend mode="normal" in="SourceGraphic" in2="effect1_dropShadow" result="shape"/>
</filter>
<filter id="filter1_d" x="137.277" y="70.9539" width="424.988" height="511.581" filterUnits="userSpaceOnUse" color-interpolation-filters="sRGB">
<feFlood flood-opacity="0" result="BackgroundImageFix"/>
<feColorMatrix in="SourceAlpha" type="matrix" values="0 0 0 0 0 0 0 0 0 0 0 0 0 0 0 0 0 0 127 0" result="hardAlpha"/>
<feOffset dy="4"/>
<feGaussianBlur stdDeviation="2"/>
<feComposite in2="hardAlpha" operator="out"/>
<feColorMatrix type="matrix" values="0 0 0 0 0 0 0 0 0 0 0 0 0 0 0 0 0 0 0.25 0"/>
<feBlend mode="normal" in2="BackgroundImageFix" result="effect1_dropShadow"/>
<feBlend mode="normal" in="SourceGraphic" in2="effect1_dropShadow" result="shape"/>
</filter>
<filter id="filter2_dd" x="142.517" y="78.8367" width="478.395" height="542.406" filterUnits="userSpaceOnUse" color-interpolation-filters="sRGB">
<feFlood flood-opacity="0" result="BackgroundImageFix"/>
<feColorMatrix in="SourceAlpha" type="matrix" values="0 0 0 0 0 0 0 0 0 0 0 0 0 0 0 0 0 0 127 0" result="hardAlpha"/>
<feOffset dy="4"/>
<feGaussianBlur stdDeviation="2"/>
<feComposite in2="hardAlpha" operator="out"/>
<feColorMatrix type="matrix" values="0 0 0 0 0 0 0 0 0 0 0 0 0 0 0 0 0 0 0.25 0"/>
<feBlend mode="normal" in2="BackgroundImageFix" result="effect1_dropShadow"/>
<feColorMatrix in="SourceAlpha" type="matrix" values="0 0 0 0 0 0 0 0 0 0 0 0 0 0 0 0 0 0 127 0" result="hardAlpha"/>
<feOffset dy="4"/>
<feGaussianBlur stdDeviation="2"/>
<feComposite in2="hardAlpha" operator="out"/>
<feColorMatrix type="matrix" values="0 0 0 0 0 0 0 0 0 0 0 0 0 0 0 0 0 0 0.25 0"/>
<feBlend mode="normal" in2="effect1_dropShadow" result="effect2_dropShadow"/>
<feBlend mode="normal" in="SourceGraphic" in2="effect2_dropShadow" result="shape"/>
</filter>
</defs>
</svg>
