<svg width="282" height="358" viewBox="0 0 282 358" fill="none" xmlns="http://www.w3.org/2000/svg">
<path d="M0 0H282V216.856C282 294.728 218.872 357.856 141 357.856H0V0Z" fill="#DBC1AC"/>
<path d="M33.0061 30.1109H248.415V206.723C248.415 266.206 200.194 314.427 140.71 314.427H33.0061V30.1109Z" fill="#634832"/>
<path d="M188.016 131.096H191.643V129.949H188.005H186.737V138.129H188.005H191.643V136.972H188.016V134.436H191.003V133.279H188.016V131.096ZM197.464 135.34C197.342 134.954 197.1 134.591 196.747 134.271C196.571 134.106 196.328 133.874 196.13 133.676L194.763 132.364C194.421 132.033 194.41 131.779 194.454 131.625C194.52 131.394 194.763 131.206 195.049 131.151C195.281 131.107 195.711 131.107 196.13 131.614L197.133 130.809C196.813 130.423 196.438 130.148 196.019 129.982C195.623 129.839 195.204 129.806 194.807 129.894C194.443 129.96 194.101 130.126 193.826 130.357C193.528 130.611 193.319 130.92 193.219 131.272C193.12 131.603 193.131 131.967 193.241 132.309C193.352 132.661 193.561 132.992 193.87 133.29L194.873 134.238C194.917 134.282 195.512 134.866 195.876 135.208C196.108 135.428 196.361 135.759 196.251 136.134C196.152 136.465 195.81 136.74 195.391 136.818C195.149 136.873 194.884 136.851 194.641 136.751C194.344 136.641 194.068 136.421 193.837 136.112L192.822 136.906C193.208 137.402 193.66 137.744 194.178 137.953C194.487 138.074 194.818 138.129 195.149 138.129C195.314 138.129 195.479 138.118 195.645 138.085C196.538 137.909 197.254 137.281 197.486 136.487C197.596 136.112 197.585 135.715 197.464 135.34ZM203.967 129.949H198.179V131.096H200.428V138.129H201.718V131.096H203.967V129.949ZM210.546 136.829C211.538 135.528 212.1 134.767 212.795 133.841C213.181 133.334 213.412 132.816 213.479 132.331C213.556 131.835 213.468 131.372 213.225 130.975C212.784 130.225 211.836 129.828 210.888 129.971C210.392 130.049 209.94 130.269 209.576 130.6C209.267 130.886 209.025 131.239 208.87 131.658L210.017 132.331C210.094 132.011 210.248 131.746 210.447 131.559C210.623 131.394 210.844 131.294 211.086 131.25C211.516 131.184 211.935 131.349 212.112 131.647C212.2 131.779 212.222 131.945 212.2 132.143C212.156 132.408 212.001 132.739 211.759 133.069C210.91 134.205 210.237 135.098 208.727 137.093L207.933 138.129H213.677V136.829H210.546ZM217.854 138.129C218.372 138.129 218.846 137.997 219.276 137.744C219.662 137.512 219.993 137.181 220.257 136.762C220.72 136.035 220.985 135.076 220.985 134.05C220.985 133.025 220.72 132.055 220.246 131.327C219.982 130.897 219.651 130.567 219.254 130.335C218.835 130.071 218.35 129.949 217.832 129.949C217.314 129.949 216.829 130.071 216.399 130.335C216.013 130.567 215.682 130.897 215.407 131.305C214.944 132.033 214.679 133.003 214.679 134.028C214.679 135.054 214.944 136.024 215.418 136.751C215.693 137.17 216.024 137.512 216.421 137.744C216.851 137.997 217.336 138.129 217.854 138.129ZM217.832 131.228C218.383 131.228 218.835 131.493 219.177 132.022C219.508 132.54 219.695 133.279 219.695 134.05C219.695 134.822 219.508 135.561 219.177 136.068C218.846 136.586 218.405 136.851 217.854 136.851C217.292 136.851 216.829 136.575 216.487 136.057C216.156 135.539 215.958 134.8 215.958 134.028C215.958 133.257 216.156 132.518 216.487 132.011C216.818 131.493 217.27 131.228 217.832 131.228ZM223.842 136.829C224.834 135.528 225.396 134.767 226.091 133.841C226.477 133.334 226.708 132.816 226.774 132.331C226.852 131.835 226.763 131.372 226.521 130.975C226.08 130.225 225.132 129.828 224.184 129.971C223.688 130.049 223.236 130.269 222.872 130.6C222.563 130.886 222.321 131.239 222.166 131.658L223.313 132.331C223.39 132.011 223.544 131.746 223.743 131.559C223.919 131.394 224.14 131.294 224.382 131.25C224.812 131.184 225.231 131.349 225.407 131.647C225.496 131.779 225.518 131.945 225.496 132.143C225.451 132.408 225.297 132.739 225.055 133.069C224.206 134.205 223.533 135.098 222.023 137.093L221.229 138.129H226.973V136.829H223.842ZM230.692 138.129V129.949L227.638 132.231L228.399 133.257L229.413 132.496V138.129H230.692Z" fill="#ECE0D1"/>
<line x1="232.78" y1="134.728" x2="239.308" y2="134.728" stroke="#ECE0D1" stroke-width="0.384005"/>
<path d="M178.349 134.92H184.493" stroke="#ECE0D1" stroke-width="0.384005"/>
<path d="M86.2422 78.7646C85.9006 79.1916 85.5591 79.5758 85.1748 79.9601C83.1254 82.0095 80.3929 83.1623 77.4896 83.1623C74.5862 83.1623 71.8537 82.0095 69.8043 79.9601C67.7549 77.9107 66.6021 75.1782 66.6021 72.2748C66.6021 69.3715 67.7549 66.639 69.8043 64.5896C71.8537 62.4975 74.5862 61.3874 77.4896 61.3874C80.0513 61.3874 82.4423 62.2413 84.3636 63.8211V57.9717C84.1501 57.8864 83.8939 57.7583 83.6804 57.6729C81.7164 56.819 79.6243 56.4347 77.4896 56.4347C75.3548 56.4347 73.2627 56.819 71.3414 57.6729C69.42 58.4414 67.7549 59.5942 66.3032 61.0458C64.8516 62.4975 63.6988 64.2053 62.8876 66.0839C62.0764 68.048 61.6494 70.1401 61.6494 72.2748C61.6494 74.4096 62.0764 76.5017 62.8876 78.423C63.6988 80.3444 64.8516 82.0095 66.3032 83.4611C67.7549 84.9128 69.42 86.0656 71.3414 86.8768C73.2627 87.688 75.3548 88.115 77.4896 88.115C79.6243 88.115 81.7164 87.688 83.6804 86.8768C84.5771 86.4925 85.431 86.0229 86.2422 85.5105V78.7646ZM106.683 88.115C108.818 88.115 110.91 87.688 112.874 86.8768C114.753 86.0656 116.418 84.9128 117.912 83.4611C119.364 82.0095 120.474 80.3444 121.285 78.423C122.096 76.5017 122.523 74.4096 122.523 72.2748C122.523 70.1401 122.096 68.048 121.285 66.0839C120.474 64.2053 119.364 62.5402 117.912 61.0458C116.418 59.5942 114.753 58.4841 112.874 57.6729C110.91 56.8617 108.818 56.4347 106.683 56.4347C104.548 56.4347 102.456 56.8617 100.535 57.6729C98.6136 58.4841 96.9485 59.5942 95.4968 61.0458C94.0452 62.5402 92.8924 64.2053 92.0812 66.0839C91.27 68.048 90.843 70.1401 90.843 72.2748C90.843 74.4096 91.27 76.5017 92.0812 78.423C92.8924 80.3444 94.0452 82.0095 95.4968 83.4611C96.9485 84.9128 98.6136 86.0656 100.535 86.8768C102.456 87.688 104.548 88.115 106.683 88.115ZM106.683 61.3874C109.586 61.3874 112.319 62.5402 114.368 64.5896C116.418 66.639 117.571 69.3715 117.571 72.2748C117.571 75.1782 116.418 77.9107 114.368 79.9601C112.319 82.0095 109.586 83.1623 106.683 83.1623C103.78 83.1623 101.047 82.0095 98.9979 79.9601C96.9485 77.9107 95.7957 75.1782 95.7957 72.2748C95.7957 69.3715 96.9485 66.639 98.9979 64.5896C101.047 62.5402 103.78 61.3874 106.683 61.3874ZM151.37 78.7646C151.028 79.1916 150.687 79.5758 150.303 79.9601C148.253 82.0095 145.521 83.1623 142.617 83.1623C139.714 83.1623 136.981 82.0095 134.932 79.9601C132.883 77.9107 131.73 75.1782 131.73 72.2748C131.73 69.3715 132.883 66.639 134.932 64.5896C136.981 62.4975 139.714 61.3874 142.617 61.3874C145.179 61.3874 147.57 62.2413 149.491 63.8211V57.9717C149.278 57.8864 149.022 57.7583 148.808 57.6729C146.844 56.819 144.752 56.4347 142.617 56.4347C140.483 56.4347 138.39 56.819 136.469 57.6729C134.548 58.4414 132.883 59.5942 131.431 61.0458C129.979 62.4975 128.827 64.2053 128.015 66.0839C127.204 68.048 126.777 70.1401 126.777 72.2748C126.777 74.4096 127.204 76.5017 128.015 78.423C128.827 80.3444 129.979 82.0095 131.431 83.4611C132.883 84.9128 134.548 86.0656 136.469 86.8768C138.39 87.688 140.483 88.115 142.617 88.115C144.752 88.115 146.844 87.688 148.808 86.8768C149.705 86.4925 150.559 86.0229 151.37 85.5105V78.7646ZM171.811 88.115C173.946 88.115 176.038 87.688 178.002 86.8768C179.88 86.0656 181.546 84.9128 183.04 83.4611C184.492 82.0095 185.602 80.3444 186.413 78.423C187.224 76.5017 187.651 74.4096 187.651 72.2748C187.651 70.1401 187.224 68.048 186.413 66.0839C185.602 64.2053 184.492 62.5402 183.04 61.0458C181.546 59.5942 179.88 58.4841 178.002 57.6729C176.038 56.8617 173.946 56.4347 171.811 56.4347C169.676 56.4347 167.584 56.8617 165.663 57.6729C163.741 58.4841 162.076 59.5942 160.625 61.0458C159.173 62.5402 158.02 64.2053 157.209 66.0839C156.398 68.048 155.971 70.1401 155.971 72.2748C155.971 74.4096 156.398 76.5017 157.209 78.423C158.02 80.3444 159.173 82.0095 160.625 83.4611C162.076 84.9128 163.741 86.0656 165.663 86.8768C167.584 87.688 169.676 88.115 171.811 88.115ZM171.811 61.3874C174.714 61.3874 177.447 62.5402 179.496 64.5896C181.546 66.639 182.698 69.3715 182.698 72.2748C182.698 75.1782 181.546 77.9107 179.496 79.9601C177.447 82.0095 174.714 83.1623 171.811 83.1623C168.908 83.1623 166.175 82.0095 164.126 79.9601C162.076 77.9107 160.924 75.1782 160.924 72.2748C160.924 69.3715 162.076 66.639 164.126 64.5896C166.175 62.5402 168.908 61.3874 171.811 61.3874ZM86.2422 128.765C85.9006 129.192 85.5591 129.576 85.1748 129.96C83.1254 132.009 80.3929 133.162 77.4896 133.162C74.5862 133.162 71.8537 132.009 69.8043 129.96C67.7549 127.911 66.6021 125.178 66.6021 122.275C66.6021 119.372 67.7549 116.639 69.8043 114.59C71.8537 112.498 74.5862 111.387 77.4896 111.387C80.0513 111.387 82.4423 112.241 84.3636 113.821V107.972C84.1501 107.886 83.8939 107.758 83.6804 107.673C81.7164 106.819 79.6243 106.435 77.4896 106.435C75.3548 106.435 73.2627 106.819 71.3414 107.673C69.42 108.441 67.7549 109.594 66.3032 111.046C64.8516 112.498 63.6988 114.205 62.8876 116.084C62.0764 118.048 61.6494 120.14 61.6494 122.275C61.6494 124.41 62.0764 126.502 62.8876 128.423C63.6988 130.344 64.8516 132.009 66.3032 133.461C67.7549 134.913 69.42 136.066 71.3414 136.877C73.2627 137.688 75.3548 138.115 77.4896 138.115C79.6243 138.115 81.7164 137.688 83.6804 136.877C84.5771 136.493 85.431 136.023 86.2422 135.511V128.765ZM111.721 138.115H117.144L103.396 104.983L89.6048 138.115H95.0699L97.7597 131.326H109.031L111.721 138.115ZM99.5529 126.886L103.396 117.237L107.238 126.886H99.5529ZM126.507 110.875H140.597V106.435H126.465H121.555V138.115H126.507V123.812H138.078V119.329H126.507V110.875ZM151.399 110.875H165.446V106.435H151.357H146.447V138.115H151.357H165.446V133.632H151.399V123.812H162.97V119.329H151.399V110.875Z" fill="#ECE0D1"/>
</svg>
