<svg width="512" height="649" viewBox="0 0 512 649" fill="none" xmlns="http://www.w3.org/2000/svg">
<path d="M0 0H511.429V393.286C511.429 534.513 396.942 649 255.714 649H0V0Z" fill="#DBC1AC"/>
<path d="M59.8591 54.6084H450.519V374.908C450.519 482.786 363.067 570.238 255.189 570.238H59.8591V54.6084Z" fill="#634832"/>
<path d="M340.981 237.43H347.559V235.351H340.961H338.661V250.186H340.961H347.559V248.087H340.981V243.488H346.399V241.389H340.981V237.43ZM358.116 245.128C357.896 244.428 357.456 243.768 356.816 243.188C356.496 242.889 356.056 242.469 355.696 242.109L353.217 239.73C352.597 239.13 352.577 238.67 352.657 238.39C352.777 237.97 353.217 237.63 353.737 237.53C354.157 237.45 354.937 237.45 355.696 238.37L357.516 236.911C356.936 236.211 356.256 235.711 355.497 235.411C354.777 235.151 354.017 235.091 353.297 235.251C352.637 235.371 352.018 235.671 351.518 236.091C350.978 236.551 350.598 237.111 350.418 237.75C350.238 238.35 350.258 239.01 350.458 239.63C350.658 240.269 351.038 240.869 351.598 241.409L353.417 243.129C353.497 243.208 354.577 244.268 355.237 244.888C355.656 245.288 356.116 245.888 355.916 246.567C355.736 247.167 355.117 247.667 354.357 247.807C353.917 247.907 353.437 247.867 352.997 247.687C352.458 247.487 351.958 247.087 351.538 246.527L349.698 247.967C350.398 248.867 351.218 249.486 352.158 249.866C352.717 250.086 353.317 250.186 353.917 250.186C354.217 250.186 354.517 250.166 354.817 250.106C356.436 249.786 357.736 248.647 358.156 247.207C358.356 246.527 358.336 245.808 358.116 245.128ZM369.91 235.351H359.413V237.43H363.492V250.186H365.831V237.43H369.91V235.351ZM381.842 247.827C383.641 245.468 384.661 244.088 385.92 242.409C386.62 241.489 387.04 240.549 387.16 239.67C387.3 238.77 387.14 237.93 386.7 237.21C385.9 235.851 384.181 235.131 382.461 235.391C381.562 235.531 380.742 235.931 380.082 236.531C379.522 237.051 379.083 237.69 378.803 238.45L380.882 239.67C381.022 239.09 381.302 238.61 381.662 238.27C381.982 237.97 382.381 237.79 382.821 237.71C383.601 237.59 384.361 237.89 384.681 238.43C384.841 238.67 384.881 238.97 384.841 239.33C384.761 239.81 384.481 240.409 384.041 241.009C382.501 243.069 381.282 244.688 378.543 248.307L377.103 250.186H387.52V247.827H381.842ZM395.095 250.186C396.035 250.186 396.894 249.946 397.674 249.486C398.374 249.067 398.974 248.467 399.454 247.707C400.293 246.387 400.773 244.648 400.773 242.789C400.773 240.929 400.293 239.17 399.434 237.85C398.954 237.071 398.354 236.471 397.634 236.051C396.874 235.571 395.995 235.351 395.055 235.351C394.115 235.351 393.236 235.571 392.456 236.051C391.756 236.471 391.156 237.071 390.656 237.81C389.817 239.13 389.337 240.889 389.337 242.749C389.337 244.608 389.817 246.367 390.676 247.687C391.176 248.447 391.776 249.067 392.496 249.486C393.276 249.946 394.155 250.186 395.095 250.186ZM395.055 237.67C396.055 237.67 396.874 238.15 397.494 239.11C398.094 240.05 398.434 241.389 398.434 242.789C398.434 244.188 398.094 245.528 397.494 246.447C396.894 247.387 396.095 247.867 395.095 247.867C394.075 247.867 393.236 247.367 392.616 246.427C392.016 245.488 391.656 244.148 391.656 242.749C391.656 241.349 392.016 240.01 392.616 239.09C393.216 238.15 394.035 237.67 395.055 237.67ZM405.955 247.827C407.754 245.468 408.774 244.088 410.033 242.409C410.733 241.489 411.153 240.549 411.273 239.67C411.413 238.77 411.253 237.93 410.813 237.21C410.013 235.851 408.294 235.131 406.574 235.391C405.675 235.531 404.855 235.931 404.195 236.531C403.635 237.051 403.196 237.69 402.916 238.45L404.995 239.67C405.135 239.09 405.415 238.61 405.775 238.27C406.095 237.97 406.494 237.79 406.934 237.71C407.714 237.59 408.474 237.89 408.794 238.43C408.954 238.67 408.994 238.97 408.954 239.33C408.874 239.81 408.594 240.409 408.154 241.009C406.614 243.069 405.395 244.688 402.656 248.307L401.216 250.186H411.633V247.827H405.955ZM418.377 250.186V235.351L412.839 239.49L414.218 241.349L416.058 239.97V250.186H418.377Z" fill="#ECE0D1"/>
<line x1="422.165" y1="244.34" x2="434.004" y2="244.34" stroke="#ECE0D1" stroke-width="0.696423"/>
<path d="M323.45 244.688H334.593" stroke="#ECE0D1" stroke-width="0.696423"/>
<path d="M156.407 142.557C155.787 143.331 155.168 144.028 154.471 144.725C150.754 148.442 145.799 150.532 140.533 150.532C135.268 150.532 130.312 148.442 126.595 144.725C122.879 141.008 120.788 136.053 120.788 130.787C120.788 125.522 122.879 120.566 126.595 116.849C130.312 113.055 135.268 111.042 140.533 111.042C145.179 111.042 149.515 112.591 153 115.456V104.847C152.613 104.693 152.148 104.46 151.761 104.305C148.199 102.757 144.405 102.06 140.533 102.06C136.662 102.06 132.867 102.757 129.383 104.305C125.899 105.699 122.879 107.79 120.246 110.423C117.613 113.055 115.523 116.153 114.051 119.56C112.58 123.121 111.806 126.916 111.806 130.787C111.806 134.659 112.58 138.453 114.051 141.937C115.523 145.422 117.613 148.442 120.246 151.074C122.879 153.707 125.899 155.798 129.383 157.269C132.867 158.74 136.662 159.515 140.533 159.515C144.405 159.515 148.199 158.74 151.761 157.269C153.387 156.572 154.936 155.72 156.407 154.791V142.557ZM193.478 159.515C197.35 159.515 201.144 158.74 204.706 157.269C208.113 155.798 211.133 153.707 213.843 151.074C216.475 148.442 218.489 145.422 219.96 141.937C221.431 138.453 222.205 134.659 222.205 130.787C222.205 126.916 221.431 123.121 219.96 119.56C218.489 116.153 216.475 113.133 213.843 110.423C211.133 107.79 208.113 105.777 204.706 104.305C201.144 102.834 197.35 102.06 193.478 102.06C189.607 102.06 185.812 102.834 182.328 104.305C178.843 105.777 175.824 107.79 173.191 110.423C170.558 113.133 168.468 116.153 166.996 119.56C165.525 123.121 164.751 126.916 164.751 130.787C164.751 134.659 165.525 138.453 166.996 141.937C168.468 145.422 170.558 148.442 173.191 151.074C175.824 153.707 178.843 155.798 182.328 157.269C185.812 158.74 189.607 159.515 193.478 159.515ZM193.478 111.042C198.744 111.042 203.699 113.133 207.416 116.849C211.133 120.566 213.223 125.522 213.223 130.787C213.223 136.053 211.133 141.008 207.416 144.725C203.699 148.442 198.744 150.532 193.478 150.532C188.213 150.532 183.257 148.442 179.54 144.725C175.824 141.008 173.733 136.053 173.733 130.787C173.733 125.522 175.824 120.566 179.54 116.849C183.257 113.133 188.213 111.042 193.478 111.042ZM274.521 142.557C273.902 143.331 273.282 144.028 272.585 144.725C268.869 148.442 263.913 150.532 258.648 150.532C253.382 150.532 248.427 148.442 244.71 144.725C240.993 141.008 238.902 136.053 238.902 130.787C238.902 125.522 240.993 120.566 244.71 116.849C248.427 113.055 253.382 111.042 258.648 111.042C263.293 111.042 267.63 112.591 271.114 115.456V104.847C270.727 104.693 270.262 104.46 269.875 104.305C266.313 102.757 262.519 102.06 258.648 102.06C254.776 102.06 250.982 102.757 247.497 104.305C244.013 105.699 240.993 107.79 238.36 110.423C235.728 113.055 233.637 116.153 232.166 119.56C230.695 123.121 229.92 126.916 229.92 130.787C229.92 134.659 230.695 138.453 232.166 141.937C233.637 145.422 235.728 148.442 238.36 151.074C240.993 153.707 244.013 155.798 247.497 157.269C250.982 158.74 254.776 159.515 258.648 159.515C262.519 159.515 266.313 158.74 269.875 157.269C271.501 156.572 273.05 155.72 274.521 154.791V142.557ZM311.592 159.515C315.464 159.515 319.258 158.74 322.82 157.269C326.227 155.798 329.247 153.707 331.957 151.074C334.59 148.442 336.603 145.422 338.074 141.937C339.545 138.453 340.32 134.659 340.32 130.787C340.32 126.916 339.545 123.121 338.074 119.56C336.603 116.153 334.59 113.133 331.957 110.423C329.247 107.79 326.227 105.777 322.82 104.305C319.258 102.834 315.464 102.06 311.592 102.06C307.721 102.06 303.927 102.834 300.442 104.305C296.958 105.777 293.938 107.79 291.305 110.423C288.672 113.133 286.582 116.153 285.111 119.56C283.639 123.121 282.865 126.916 282.865 130.787C282.865 134.659 283.639 138.453 285.111 141.937C286.582 145.422 288.672 148.442 291.305 151.074C293.938 153.707 296.958 155.798 300.442 157.269C303.927 158.74 307.721 159.515 311.592 159.515ZM311.592 111.042C316.858 111.042 321.813 113.133 325.53 116.849C329.247 120.566 331.338 125.522 331.338 130.787C331.338 136.053 329.247 141.008 325.53 144.725C321.813 148.442 316.858 150.532 311.592 150.532C306.327 150.532 301.371 148.442 297.655 144.725C293.938 141.008 291.847 136.053 291.847 130.787C291.847 125.522 293.938 120.566 297.655 116.849C301.371 113.133 306.327 111.042 311.592 111.042ZM156.407 233.557C155.787 234.331 155.168 235.028 154.471 235.725C150.754 239.442 145.799 241.532 140.533 241.532C135.268 241.532 130.312 239.442 126.595 235.725C122.879 232.008 120.788 227.053 120.788 221.787C120.788 216.522 122.879 211.566 126.595 207.849C130.312 204.055 135.268 202.042 140.533 202.042C145.179 202.042 149.515 203.591 153 206.456V195.847C152.613 195.693 152.148 195.46 151.761 195.305C148.199 193.757 144.405 193.06 140.533 193.06C136.662 193.06 132.867 193.757 129.383 195.305C125.899 196.699 122.879 198.79 120.246 201.423C117.613 204.055 115.523 207.153 114.051 210.56C112.58 214.121 111.806 217.916 111.806 221.787C111.806 225.659 112.58 229.453 114.051 232.937C115.523 236.422 117.613 239.442 120.246 242.074C122.879 244.707 125.899 246.798 129.383 248.269C132.867 249.74 136.662 250.515 140.533 250.515C144.405 250.515 148.199 249.74 151.761 248.269C153.387 247.572 154.936 246.72 156.407 245.791V233.557ZM202.615 250.515H212.449L187.516 190.427L162.505 250.515H172.417L177.295 238.203H197.737L202.615 250.515ZM180.547 230.15L187.516 212.65L194.485 230.15H180.547ZM229.431 201.113H254.983V193.06H229.353H220.449V250.515H229.431V224.575H250.415V216.444H229.431V201.113ZM274.574 201.113H300.05V193.06H274.497H265.592V250.515H274.497H300.05V242.384H274.574V224.575H295.559V216.444H274.574V201.113Z" fill="#ECE0D1"/>
</svg>
